<svg xmlns="http://www.w3.org/2000/svg" viewBox="0 0 49.71 24.96"><defs><style>.cls-1{fill:none;}.cls-2{fill:#7c7c7c;}</style></defs><title>자산 2xxxhdpi</title><g id="레이어_2" data-name="레이어 2"><g id="레이어_1-2" data-name="레이어 1"><polyline class="cls-1" points="3.86 1.98 24.86 22.98 45.86 1.98 3.86 1.98"/><path class="cls-2" d="M49.61,0H45.9a.09.09,0,0,0-.07,0l-20.9,20.9a.11.11,0,0,1-.07,0,.08.08,0,0,1-.07,0L3.89,0a.11.11,0,0,0-.08,0H.1A.1.1,0,0,0,0,.17L22.86,23l1.93,1.93a.08.08,0,0,0,.07,0,.11.11,0,0,0,.07,0L26.86,23,49.68.17A.1.1,0,0,0,49.61,0Z"/></g></g></svg>